<?xml version="1.0" encoding="utf-8"?>
<!-- Generator: Adobe Illustrator 16.0.0, SVG Export Plug-In . SVG Version: 6.00 Build 0)  -->
<!DOCTYPE svg PUBLIC "-//W3C//DTD SVG 1.1//EN" "http://www.w3.org/Graphics/SVG/1.1/DTD/svg11.dtd">
<svg version="1.1" id="Layer_1" xmlns="http://www.w3.org/2000/svg" xmlns:xlink="http://www.w3.org/1999/xlink" x="0px" y="0px"
	 width="4425.039px" height="1270.679px" viewBox="0 0 4425.039 1270.679" enable-background="new 0 0 4425.039 1270.679"
	 xml:space="preserve">
<g>
	<path fill="#FFFFFF" stroke="#FFFFFF" stroke-miterlimit="10" d="M635.17,84.201c-301.82,0-546.514,246.747-546.514,551.133
		s244.693,551.146,546.514,551.146c301.834,0,546.527-246.76,546.527-551.146S937.004,84.201,635.17,84.201z M581.305,234.903
		l29.645-63.062c7.008-4.497,14.891-7.008,23.229-7.008s16.217,2.511,23.227,7.008l29.658,63.09l47.877,101.797L471.358,468.735
		L581.305,234.903z M443.108,528.824L752.37,373.825l52.494,111.598l-446.172,222.93L443.108,528.824z M634.19,754.578h-0.012
		l-388.57,194.271l84.668-180.059l492.082-246.143l52.297,111.229L634.19,754.578z M680.094,777.538l212.203-106.148l130.455,277.46
		L680.094,777.538z"/>
	<g>
		<path fill="#FFFFFF" d="M2007.178,585.798c0-145.93,81.883-232.368,239.5-232.368c100.172,0,171.365,41.688,215.58,126.088
			l-116.932,83.397c-27.973-46.268-54.914-64.568-94.588-64.568c-48.809,0-77.271,33.045-77.271,85.428v135.231
			c0,52.381,28.463,85.436,77.271,85.436c37.645,0,65.602-15.763,97.648-64.579l118.959,80.861
			C2415,904.61,2353.981,948.849,2249.725,948.849c-158.127,0-242.547-86.958-242.547-231.866V585.798z"/>
		<path fill="#FFFFFF" d="M2495.29,369.193l94.586-7.628V255.292l162.719-16.275v122.547h145.424V494.78h-145.424v263.919
			c0,27.436,20.84,43.711,52.885,43.711c22.359,0,47.793-4.573,77.273-13.732l37.119,118.475
			c-43.719,27.963-91.029,41.695-143.391,41.695c-70.17,0-121.021-19.315-149.484-56.949
			c-28.986-37.121-41.195-82.376-41.195-143.88V494.78h-90.512V369.193z"/>
		<path fill="#FFFFFF" d="M2992.042,165.292h170.336v147.451h-170.336V165.292z M2994.069,369.706h166.277v579.144h-166.277V369.706
			z"/>
		<path fill="#FFFFFF" d="M3269.143,361.564h166.779v345.761c0,60.001,21.35,83.404,63.543,83.404
			c27.479,0,54.42-11.199,82.375-34.082V361.564h166.275v579.144h-136.271l-13.211-50.831
			c-42.719,39.657-95.094,58.972-157.631,58.972c-48.811,0-88.482-14.746-114.395-39.157
			c-26.465-24.405-43.748-60.504-51.375-101.176c-4.072-20.344-6.09-42.211-6.09-66.615V361.564z"/>
		<g>
			<path fill="#FFFFFF" d="M1565.879,219.699h164.732l230.861,729.15H1780.45l-41.682-142.871h-181.023l-41.691,142.871h-181.531
				L1565.879,219.699z M1704.184,649.354l-53.902-211.516h-4.062l-54.404,211.516H1704.184z"/>
			<path fill="#FFFFFF" d="M3857.391,369.706h136.289l13.719,51.353c43.209-39.666,95.061-59.488,157.109-59.488
				c48.826,0,88.482,14.734,114.902,39.151c25.955,24.405,43.24,60.503,51.375,101.183c3.566,20.344,5.596,42.203,5.596,66.615
				v380.329h-166.768V603.095c0-59.995-21.359-83.383-63.57-83.383c-26.434,0-53.898,11.173-82.375,34.576v394.561h-166.277V369.706
				z"/>
		</g>
	</g>
</g>
</svg>
